<svg width="70" height="68" viewBox="0 0 70 68" fill="none" xmlns="http://www.w3.org/2000/svg">
<path d="M38.0799 0.842177L17.4153 15.6027H3.06634C1.37291 15.6027 0 16.9756 0 18.669V49.3323C0 51.0258 1.37291 52.3987 3.06634 52.3987H17.4154L38.08 67.1591C40.1096 68.6088 42.9287 67.158 42.9287 64.664V3.33743C42.9285 0.843279 40.1094 -0.607453 38.0799 0.842177ZM36.7958 58.7055L21.4643 47.7543V43.1996C21.4643 41.5062 20.0914 40.1333 18.3979 40.1333C16.7045 40.1333 15.3316 41.5062 15.3316 43.1996V46.266H6.13269V21.7354H15.3317V24.8017C15.3317 26.4951 16.7046 27.868 18.3981 27.868C20.0915 27.868 21.4644 26.4951 21.4644 24.8017V20.247L36.7958 9.29587V58.7055Z" fill="#FCCA3A"/>
<path d="M62.5964 34.0014L69.1016 27.4963C70.299 26.2989 70.299 24.3573 69.1016 23.1598C67.9042 21.9624 65.9626 21.9624 64.7651 23.1598L58.2599 29.6649L51.7553 23.1603C50.5579 21.9629 48.6164 21.9629 47.4188 23.1603C46.2214 24.3577 46.2214 26.2993 47.4188 27.4968L53.9234 34.0014L47.4188 40.506C46.2214 41.7034 46.2214 43.6449 47.4188 44.8425C48.6162 46.0399 50.5578 46.0399 51.7553 44.8425L58.2599 38.3379L64.7651 44.843C65.9625 46.0405 67.904 46.0405 69.1016 44.843C70.299 43.6456 70.299 41.7041 69.1016 40.5066L62.5964 34.0014Z" fill="#FCCA3A"/>
</svg>
