<svg width="320" height="204" viewBox="0 0 320 204" fill="none" xmlns="http://www.w3.org/2000/svg">
<g filter="url(#filter0_f_713_2622)">
<rect x="10" y="50" width="294" height="104" fill="black" fill-opacity="0.1"/>
</g>
<path d="M42.828 60.218V66H44.41V60.218H46.804V58.874H40.42V60.218H42.828ZM55.0184 62.43C55.0184 61.324 54.6964 60.428 54.0384 59.742C53.3944 59.042 52.5264 58.692 51.4204 58.692C50.3144 58.692 49.4464 59.042 48.7884 59.742C48.1444 60.428 47.8224 61.324 47.8224 62.43C47.8224 63.536 48.1444 64.446 48.7884 65.146C49.4464 65.832 50.3144 66.182 51.4204 66.182C52.5264 66.182 53.3944 65.832 54.0384 65.146C54.6964 64.446 55.0184 63.536 55.0184 62.43ZM53.4364 62.43C53.4364 63.788 52.7224 64.838 51.4204 64.838C50.1184 64.838 49.4044 63.788 49.4044 62.43C49.4044 61.086 50.1184 60.036 51.4204 60.036C52.7224 60.036 53.4364 61.086 53.4364 62.43ZM56.2693 66C57.2633 66 57.9773 65.692 58.4113 65.062C58.8593 64.432 59.0833 63.34 59.0833 61.8V60.218H61.8133V66H63.3953V58.874H57.6273V61.758C57.6273 63.83 57.2353 64.502 56.2693 64.502H56.0173V66H56.2693ZM65.5783 58.874V66H69.0783C70.8563 66 71.8503 65.062 71.8503 63.508C71.8503 61.982 70.8563 61.086 69.0783 61.086H67.1603V58.874H65.5783ZM67.1603 64.656V62.36H68.8543C69.8763 62.36 70.2683 62.738 70.2683 63.508C70.2683 64.25 69.8763 64.656 68.8543 64.656H67.1603ZM80.0747 66L78.2267 62.304L79.9767 58.874H78.3527L76.9247 61.674H75.0627V58.874H73.4807V66H75.0627V63.018H76.8967L78.4087 66H80.0747ZM88.2547 62.43C88.2547 61.324 87.9327 60.428 87.2747 59.742C86.6307 59.042 85.7627 58.692 84.6567 58.692C83.5507 58.692 82.6827 59.042 82.0247 59.742C81.3807 60.428 81.0587 61.324 81.0587 62.43C81.0587 63.536 81.3807 64.446 82.0247 65.146C82.6827 65.832 83.5507 66.182 84.6567 66.182C85.7627 66.182 86.6307 65.832 87.2747 65.146C87.9327 64.446 88.2547 63.536 88.2547 62.43ZM86.6727 62.43C86.6727 63.788 85.9587 64.838 84.6567 64.838C83.3547 64.838 82.6407 63.788 82.6407 62.43C82.6407 61.086 83.3547 60.036 84.6567 60.036C85.9587 60.036 86.6727 61.086 86.6727 62.43ZM100.472 58.874H93.9201V66H95.5021V60.218H98.8901V66H100.472V58.874ZM106.17 60.036C107.416 60.036 108.116 60.988 108.116 62.43C108.116 63.872 107.416 64.838 106.17 64.838C104.868 64.838 104.196 63.788 104.196 62.43C104.196 61.072 104.868 60.036 106.17 60.036ZM102.656 68.8H104.238V65.314H104.574C105.008 65.888 105.694 66.182 106.618 66.182C107.556 66.182 108.312 65.832 108.858 65.132C109.418 64.432 109.698 63.536 109.698 62.43C109.698 61.338 109.418 60.442 108.858 59.742C108.312 59.042 107.556 58.692 106.618 58.692C105.68 58.692 104.98 58.986 104.518 59.56H104.182V58.874H102.656V68.8ZM118.237 62.43C118.237 61.324 117.915 60.428 117.257 59.742C116.613 59.042 115.745 58.692 114.639 58.692C113.533 58.692 112.665 59.042 112.007 59.742C111.363 60.428 111.041 61.324 111.041 62.43C111.041 63.536 111.363 64.446 112.007 65.146C112.665 65.832 113.533 66.182 114.639 66.182C115.745 66.182 116.613 65.832 117.257 65.146C117.915 64.446 118.237 63.536 118.237 62.43ZM116.655 62.43C116.655 63.788 115.941 64.838 114.639 64.838C113.337 64.838 112.623 63.788 112.623 62.43C112.623 61.086 113.337 60.036 114.639 60.036C115.941 60.036 116.655 61.086 116.655 62.43ZM124.934 66C127.342 66 128.728 64.614 128.728 62.43C128.728 61.38 128.406 60.54 127.776 59.882C127.146 59.224 126.264 58.888 125.144 58.874H124.934V55.822H123.38V58.874H123.17C122.036 58.888 121.154 59.224 120.524 59.882C119.894 60.54 119.586 61.38 119.586 62.43C119.586 63.494 119.908 64.348 120.538 65.006C121.182 65.664 122.078 65.986 123.212 66H123.38V68.8H124.934V66ZM121.14 62.43C121.14 61.128 121.868 60.162 123.212 60.148H123.38V64.726H123.198C121.854 64.712 121.14 63.76 121.14 62.43ZM124.934 60.148H125.088C126.432 60.162 127.174 61.128 127.174 62.43C127.174 63.76 126.432 64.712 125.088 64.726H124.934V60.148ZM135.252 61.296H135.588V66H137.128V58.874H135.294L132.368 63.578H132.032V58.874H130.492V66H132.284L135.252 61.296ZM138.793 66C139.787 66 140.501 65.692 140.935 65.062C141.383 64.432 141.607 63.34 141.607 61.8V60.218H144.337V66H145.919V58.874H140.151V61.758C140.151 63.83 139.759 64.502 138.793 64.502H138.541V66H138.793ZM148.102 58.874V66H151.602C153.38 66 154.374 65.062 154.374 63.508C154.374 61.982 153.38 61.086 151.602 61.086H149.684V58.874H148.102ZM149.684 64.656V62.36H151.378C152.4 62.36 152.792 62.738 152.792 63.508C152.792 64.25 152.4 64.656 151.378 64.656H149.684ZM162.612 58.874H161.03V61.674H157.586V58.874H156.004V66H157.586V63.018H161.03V66H162.612V58.874ZM164.795 66H168.155C169.933 66 170.927 65.062 170.927 63.508C170.927 61.982 169.933 61.086 168.155 61.086H166.377V58.874H164.795V66ZM167.931 62.36C168.953 62.36 169.345 62.738 169.345 63.508C169.345 64.25 168.953 64.656 167.931 64.656H166.377V62.36H167.931ZM172.033 66H173.615V58.874H172.033V66ZM182.213 62.038C182.199 61.072 181.891 60.274 181.303 59.644C180.729 59.014 179.917 58.692 178.895 58.692C177.817 58.692 176.949 59.028 176.319 59.7C175.689 60.358 175.381 61.254 175.381 62.388C175.381 63.522 175.703 64.432 176.333 65.132C176.963 65.832 177.831 66.182 178.937 66.182C180.729 66.182 181.835 65.286 182.115 63.928H180.505C180.295 64.53 179.777 64.838 178.951 64.838C177.663 64.838 176.991 64.082 176.949 62.57H182.213V62.038ZM178.881 59.952C179.875 59.952 180.477 60.554 180.589 61.394H177.019C177.201 60.512 177.831 59.952 178.881 59.952ZM189.4 66V60.876H189.736L191.122 63.55H192.606L193.992 60.876H194.328V66H195.868V58.874H193.628L192.046 61.996H191.71L190.114 58.874H187.86V66H189.4ZM203.967 66V61.268C203.967 59.546 202.805 58.692 200.887 58.692C199.193 58.692 198.017 59.518 197.947 60.848H199.515C199.585 60.246 200.061 59.938 200.943 59.938C201.951 59.938 202.441 60.414 202.441 61.24V61.45H200.341C199.389 61.45 198.675 61.688 198.213 62.164C197.751 62.64 197.513 63.2 197.513 63.844C197.513 64.502 197.737 65.048 198.199 65.51C198.661 65.958 199.277 66.182 200.061 66.182C201.027 66.182 201.727 65.902 202.161 65.342H202.497V66H203.967ZM200.551 64.894C199.641 64.894 199.109 64.474 199.109 63.746C199.109 63.004 199.627 62.57 200.621 62.57H202.441V63.116C202.441 63.606 202.259 64.026 201.895 64.376C201.531 64.726 201.083 64.894 200.551 64.894ZM210.733 63.718C210.565 64.46 210.047 64.838 209.179 64.838C207.849 64.838 207.219 63.83 207.219 62.416C207.219 61.03 207.849 60.036 209.179 60.036C209.963 60.036 210.467 60.372 210.677 61.044H212.245C212.035 59.63 210.859 58.692 209.165 58.692C208.073 58.692 207.205 59.042 206.575 59.728C205.945 60.414 205.637 61.324 205.637 62.43C205.637 63.55 205.945 64.46 206.575 65.146C207.205 65.832 208.073 66.182 209.165 66.182C210.859 66.182 212.077 65.216 212.301 63.718H210.733ZM215.75 60.218V66H217.332V60.218H219.726V58.874H213.342V60.218H215.75ZM227.576 62.038C227.562 61.072 227.254 60.274 226.666 59.644C226.092 59.014 225.28 58.692 224.258 58.692C223.18 58.692 222.312 59.028 221.682 59.7C221.052 60.358 220.744 61.254 220.744 62.388C220.744 63.522 221.066 64.432 221.696 65.132C222.326 65.832 223.194 66.182 224.3 66.182C226.092 66.182 227.198 65.286 227.478 63.928H225.868C225.658 64.53 225.14 64.838 224.314 64.838C223.026 64.838 222.354 64.082 222.312 62.57H227.576V62.038ZM224.244 59.952C225.238 59.952 225.84 60.554 225.952 61.394H222.382C222.564 60.512 223.194 59.952 224.244 59.952ZM232.84 60.036C234.086 60.036 234.786 60.988 234.786 62.43C234.786 63.872 234.086 64.838 232.84 64.838C231.538 64.838 230.866 63.788 230.866 62.43C230.866 61.072 231.538 60.036 232.84 60.036ZM229.326 68.8H230.908V65.314H231.244C231.678 65.888 232.364 66.182 233.288 66.182C234.226 66.182 234.982 65.832 235.528 65.132C236.088 64.432 236.368 63.536 236.368 62.43C236.368 61.338 236.088 60.442 235.528 59.742C234.982 59.042 234.226 58.692 233.288 58.692C232.35 58.692 231.65 58.986 231.188 59.56H230.852V58.874H229.326V68.8ZM244.053 66V61.268C244.053 59.546 242.891 58.692 240.973 58.692C239.279 58.692 238.103 59.518 238.033 60.848H239.601C239.671 60.246 240.147 59.938 241.029 59.938C242.037 59.938 242.527 60.414 242.527 61.24V61.45H240.427C239.475 61.45 238.761 61.688 238.299 62.164C237.837 62.64 237.599 63.2 237.599 63.844C237.599 64.502 237.823 65.048 238.285 65.51C238.747 65.958 239.363 66.182 240.147 66.182C241.113 66.182 241.813 65.902 242.247 65.342H242.583V66H244.053ZM240.637 64.894C239.727 64.894 239.195 64.474 239.195 63.746C239.195 63.004 239.713 62.57 240.707 62.57H242.527V63.116C242.527 63.606 242.345 64.026 241.981 64.376C241.617 64.726 241.169 64.894 240.637 64.894Z" fill="white"/>
<path d="M42.674 96V90.218H46.65V88.874H41.092V96H42.674ZM53.9456 96V91.268C53.9456 89.546 52.7836 88.692 50.8656 88.692C49.1716 88.692 47.9956 89.518 47.9256 90.848H49.4936C49.5636 90.246 50.0396 89.938 50.9216 89.938C51.9296 89.938 52.4196 90.414 52.4196 91.24V91.45H50.3196C49.3676 91.45 48.6536 91.688 48.1916 92.164C47.7296 92.64 47.4916 93.2 47.4916 93.844C47.4916 94.502 47.7156 95.048 48.1776 95.51C48.6396 95.958 49.2556 96.182 50.0396 96.182C51.0056 96.182 51.7056 95.902 52.1396 95.342H52.4756V96H53.9456ZM50.5296 94.894C49.6196 94.894 49.0876 94.474 49.0876 93.746C49.0876 93.004 49.6056 92.57 50.5996 92.57H52.4196V93.116C52.4196 93.606 52.2376 94.026 51.8736 94.376C51.5096 94.726 51.0616 94.894 50.5296 94.894ZM59.5494 90.036C60.7954 90.036 61.4954 90.988 61.4954 92.43C61.4954 93.872 60.7954 94.838 59.5494 94.838C58.2474 94.838 57.5754 93.788 57.5754 92.43C57.5754 91.072 58.2474 90.036 59.5494 90.036ZM56.0354 98.8H57.6174V95.314H57.9534C58.3874 95.888 59.0734 96.182 59.9974 96.182C60.9354 96.182 61.6914 95.832 62.2374 95.132C62.7974 94.432 63.0774 93.536 63.0774 92.43C63.0774 91.338 62.7974 90.442 62.2374 89.742C61.6914 89.042 60.9354 88.692 59.9974 88.692C59.0594 88.692 58.3594 88.986 57.8974 89.56H57.5614V88.874H56.0354V98.8ZM70.762 96V91.268C70.762 89.546 69.6 88.692 67.682 88.692C65.988 88.692 64.812 89.518 64.742 90.848H66.31C66.38 90.246 66.856 89.938 67.738 89.938C68.746 89.938 69.236 90.414 69.236 91.24V91.45H67.136C66.184 91.45 65.47 91.688 65.008 92.164C64.546 92.64 64.308 93.2 64.308 93.844C64.308 94.502 64.532 95.048 64.994 95.51C65.456 95.958 66.072 96.182 66.856 96.182C67.822 96.182 68.522 95.902 68.956 95.342H69.292V96H70.762ZM67.346 94.894C66.436 94.894 65.904 94.474 65.904 93.746C65.904 93.004 66.422 92.57 67.416 92.57H69.236V93.116C69.236 93.606 69.054 94.026 68.69 94.376C68.326 94.726 67.878 94.894 67.346 94.894ZM79.4598 88.874H77.8778V91.674H74.4338V88.874H72.8518V96H74.4338V93.018H77.8778V96H79.4598V88.874ZM83.3788 90.218V96H84.9608V90.218H87.3548V88.874H80.9708V90.218H83.3788ZM93.6215 91.296H93.9575V96H95.4975V88.874H93.6635L90.7375 93.578H90.4015V88.874H88.8615V96H90.6535L93.6215 91.296ZM100.144 88.874C98.4219 88.874 97.4419 89.742 97.4419 91.156C97.4419 92.038 97.8059 92.682 98.5199 93.06L97.3719 96H98.9679L99.9619 93.396C100.074 93.41 100.242 93.41 100.466 93.41H102.146V96H103.728V88.874H100.144ZM100.27 92.178C99.4299 92.178 99.0099 91.842 99.0099 91.17C99.0099 90.498 99.4299 90.162 100.27 90.162H102.146V92.178H100.27ZM109.765 87.586H113.923V87.922L111.809 89.644V91.128C112.047 91.072 112.341 91.044 112.691 91.044C113.937 91.044 114.651 91.758 114.651 92.892C114.651 94.026 113.895 94.726 112.677 94.726C111.613 94.726 110.829 94.124 110.731 93.13H109.093C109.135 94.012 109.485 94.754 110.143 95.328C110.801 95.902 111.641 96.182 112.677 96.182C113.741 96.182 114.609 95.888 115.267 95.3C115.939 94.698 116.275 93.9 116.275 92.892C116.275 91.142 115.183 90.092 113.657 89.994V89.644L115.785 87.922V86.2H109.765V87.586ZM121.72 89.546C120.754 89.546 120.04 89.826 119.55 90.4H119.214C119.284 88.482 120.124 87.39 121.468 87.39C122.28 87.39 122.784 87.754 122.994 88.468H124.604C124.492 87.754 124.156 87.166 123.596 86.704C123.036 86.242 122.336 86.004 121.496 86.004C119.774 86.004 118.584 87.04 118.038 88.608C117.772 89.378 117.646 90.288 117.646 91.324C117.646 93.018 117.982 94.25 118.654 95.02C119.326 95.79 120.236 96.182 121.398 96.182C122.448 96.182 123.288 95.86 123.918 95.202C124.548 94.544 124.87 93.732 124.87 92.766C124.87 91.828 124.562 91.058 123.96 90.456C123.358 89.854 122.616 89.546 121.72 89.546ZM123.232 92.822C123.232 94.068 122.476 94.782 121.37 94.782C120.264 94.782 119.48 94.04 119.48 92.808C119.48 91.59 120.25 90.904 121.356 90.904C122.462 90.904 123.232 91.59 123.232 92.822ZM131.964 96V90.876H132.3L133.686 93.55H135.17L136.556 90.876H136.892V96H138.432V88.874H136.192L134.61 91.996H134.274L132.678 88.874H130.424V96H131.964ZM147.022 92.038C147.008 91.072 146.7 90.274 146.112 89.644C145.538 89.014 144.726 88.692 143.704 88.692C142.626 88.692 141.758 89.028 141.128 89.7C140.498 90.358 140.19 91.254 140.19 92.388C140.19 93.522 140.512 94.432 141.142 95.132C141.772 95.832 142.64 96.182 143.746 96.182C145.538 96.182 146.644 95.286 146.924 93.928H145.314C145.104 94.53 144.586 94.838 143.76 94.838C142.472 94.838 141.8 94.082 141.758 92.57H147.022V92.038ZM143.69 89.952C144.684 89.952 145.286 90.554 145.398 91.394H141.828C142.01 90.512 142.64 89.952 143.69 89.952ZM153.448 93.718C153.28 94.46 152.762 94.838 151.894 94.838C150.564 94.838 149.934 93.83 149.934 92.416C149.934 91.03 150.564 90.036 151.894 90.036C152.678 90.036 153.182 90.372 153.392 91.044H154.96C154.75 89.63 153.574 88.692 151.88 88.692C150.788 88.692 149.92 89.042 149.29 89.728C148.66 90.414 148.352 91.324 148.352 92.43C148.352 93.55 148.66 94.46 149.29 95.146C149.92 95.832 150.788 96.182 151.88 96.182C153.574 96.182 154.792 95.216 155.016 93.718H153.448ZM159.193 88.874C157.471 88.874 156.491 89.742 156.491 91.156C156.491 92.038 156.855 92.682 157.569 93.06L156.421 96H158.017L159.011 93.396C159.123 93.41 159.291 93.41 159.515 93.41H161.195V96H162.777V88.874H159.193ZM159.319 92.178C158.479 92.178 158.059 91.842 158.059 91.17C158.059 90.498 158.479 90.162 159.319 90.162H161.195V92.178H159.319ZM169.86 94.656H166.528V88.874H164.946V96H171.218V98.002H172.716V94.656H171.442V88.874H169.86V94.656ZM180.586 92.038C180.572 91.072 180.264 90.274 179.676 89.644C179.102 89.014 178.29 88.692 177.268 88.692C176.19 88.692 175.322 89.028 174.692 89.7C174.062 90.358 173.754 91.254 173.754 92.388C173.754 93.522 174.076 94.432 174.706 95.132C175.336 95.832 176.204 96.182 177.31 96.182C179.102 96.182 180.208 95.286 180.488 93.928H178.878C178.668 94.53 178.15 94.838 177.324 94.838C176.036 94.838 175.364 94.082 175.322 92.57H180.586V92.038ZM177.254 89.952C178.248 89.952 178.85 90.554 178.962 91.394H175.392C175.574 90.512 176.204 89.952 177.254 89.952ZM187.6 92.066C188.048 91.842 188.398 91.31 188.398 90.68C188.398 89.56 187.586 88.874 186.144 88.874H182.336V96H186.27C187.894 96 188.79 95.328 188.79 94.04C188.79 93.158 188.314 92.57 187.6 92.388V92.066ZM183.89 94.796V92.906H185.976C186.788 92.906 187.194 93.228 187.194 93.858C187.194 94.488 186.788 94.796 185.976 94.796H183.89ZM185.808 90.078C186.48 90.078 186.816 90.358 186.816 90.918C186.816 91.408 186.494 91.758 185.808 91.758H183.89V90.078H185.808Z" fill="white"/>
<path d="M44.55 119.028C43.556 119.028 42.8 119.35 42.296 120.008H41.96C42.17 118.79 42.632 118.118 43.71 117.95L45.978 117.586C47.056 117.404 47.364 116.788 47.406 115.822H46.048C46.034 116.2 45.894 116.256 45.348 116.354L43.486 116.662C42.324 116.844 41.554 117.516 41.162 118.538C40.784 119.56 40.672 120.526 40.672 121.828C40.672 124.628 42.016 126.182 44.312 126.182C45.404 126.182 46.272 125.846 46.93 125.174C47.588 124.502 47.924 123.648 47.924 122.612C47.924 121.562 47.616 120.708 47 120.036C46.398 119.364 45.572 119.028 44.55 119.028ZM44.298 124.838C43.64 124.838 43.136 124.614 42.786 124.18C42.436 123.746 42.268 123.2 42.268 122.57C42.268 121.296 42.968 120.33 44.298 120.33C45.6 120.33 46.314 121.296 46.314 122.57C46.314 123.2 46.146 123.746 45.796 124.18C45.446 124.614 44.956 124.838 44.298 124.838ZM56.4676 122.43C56.4676 121.324 56.1456 120.428 55.4876 119.742C54.8436 119.042 53.9756 118.692 52.8696 118.692C51.7636 118.692 50.8956 119.042 50.2376 119.742C49.5936 120.428 49.2716 121.324 49.2716 122.43C49.2716 123.536 49.5936 124.446 50.2376 125.146C50.8956 125.832 51.7636 126.182 52.8696 126.182C53.9756 126.182 54.8436 125.832 55.4876 125.146C56.1456 124.446 56.4676 123.536 56.4676 122.43ZM54.8856 122.43C54.8856 123.788 54.1716 124.838 52.8696 124.838C51.5676 124.838 50.8536 123.788 50.8536 122.43C50.8536 121.086 51.5676 120.036 52.8696 120.036C54.1716 120.036 54.8856 121.086 54.8856 122.43ZM57.7185 126C58.7125 126 59.4265 125.692 59.8605 125.062C60.3085 124.432 60.5325 123.34 60.5325 121.8V120.218H63.2625V126H64.8445V118.874H59.0765V121.758C59.0765 123.83 58.6845 124.502 57.7185 124.502H57.4665V126H57.7185ZM73.4395 122.038C73.4255 121.072 73.1175 120.274 72.5295 119.644C71.9555 119.014 71.1435 118.692 70.1215 118.692C69.0435 118.692 68.1755 119.028 67.5455 119.7C66.9155 120.358 66.6075 121.254 66.6075 122.388C66.6075 123.522 66.9295 124.432 67.5595 125.132C68.1895 125.832 69.0575 126.182 70.1635 126.182C71.9555 126.182 73.0615 125.286 73.3415 123.928H71.7315C71.5215 124.53 71.0035 124.838 70.1775 124.838C68.8895 124.838 68.2175 124.082 68.1755 122.57H73.4395V122.038ZM70.1075 119.952C71.1015 119.952 71.7035 120.554 71.8155 121.394H68.2455C68.4275 120.512 69.0575 119.952 70.1075 119.952ZM81.6017 122.038C81.5877 121.072 81.2797 120.274 80.6917 119.644C80.1177 119.014 79.3057 118.692 78.2837 118.692C77.2057 118.692 76.3377 119.028 75.7077 119.7C75.0777 120.358 74.7697 121.254 74.7697 122.388C74.7697 123.522 75.0917 124.432 75.7217 125.132C76.3517 125.832 77.2197 126.182 78.3257 126.182C80.1177 126.182 81.2237 125.286 81.5037 123.928H79.8937C79.6837 124.53 79.1657 124.838 78.3397 124.838C77.0517 124.838 76.3797 124.082 76.3377 122.57H81.6017V122.038ZM78.2697 119.952C79.2637 119.952 79.8657 120.554 79.9777 121.394H76.4077C76.5897 120.512 77.2197 119.952 78.2697 119.952ZM87.2203 117.586H91.3783V117.922L89.2643 119.644V121.128C89.5023 121.072 89.7963 121.044 90.1463 121.044C91.3923 121.044 92.1063 121.758 92.1063 122.892C92.1063 124.026 91.3503 124.726 90.1323 124.726C89.0683 124.726 88.2843 124.124 88.1863 123.13H86.5483C86.5903 124.012 86.9403 124.754 87.5983 125.328C88.2563 125.902 89.0963 126.182 90.1323 126.182C91.1963 126.182 92.0643 125.888 92.7223 125.3C93.3943 124.698 93.7303 123.9 93.7303 122.892C93.7303 121.142 92.6383 120.092 91.1123 119.994V119.644L93.2403 117.922V116.2H87.2203V117.586ZM101.233 116.2H99.203L94.891 122.038V123.802H99.651V126H101.233V123.802H102.507V122.374H101.233V116.2ZM96.501 122.038L99.357 118.048H99.693V122.374H96.501V122.038ZM104.846 117.278C104.16 118.132 103.824 119.406 103.824 121.1C103.824 122.794 104.16 124.068 104.846 124.922C105.532 125.762 106.428 126.182 107.548 126.182C108.668 126.182 109.564 125.762 110.25 124.922C110.936 124.068 111.272 122.794 111.272 121.1C111.272 119.406 110.936 118.132 110.25 117.278C109.564 116.424 108.668 116.004 107.548 116.004C106.428 116.004 105.532 116.424 104.846 117.278ZM105.952 123.732C105.63 123.074 105.462 122.192 105.462 121.1C105.462 120.008 105.63 119.126 105.952 118.468C106.288 117.796 106.82 117.46 107.548 117.46C108.276 117.46 108.808 117.796 109.13 118.468C109.466 119.126 109.634 120.008 109.634 121.1C109.634 122.192 109.466 123.074 109.13 123.732C108.808 124.39 108.276 124.726 107.548 124.726C106.82 124.726 106.288 124.39 105.952 123.732ZM121.661 123.718C121.493 124.46 120.975 124.838 120.107 124.838C118.777 124.838 118.147 123.83 118.147 122.416C118.147 121.03 118.777 120.036 120.107 120.036C120.891 120.036 121.395 120.372 121.605 121.044H123.173C122.963 119.63 121.787 118.692 120.093 118.692C119.001 118.692 118.133 119.042 117.503 119.728C116.873 120.414 116.565 121.324 116.565 122.43C116.565 123.55 116.873 124.46 117.503 125.146C118.133 125.832 119.001 126.182 120.093 126.182C121.787 126.182 123.005 125.216 123.229 123.718H121.661ZM131.55 118.874H125.852V120.876C125.852 122.234 125.6 123.494 125.11 124.656H124.102V128.002H125.614V126H131.326V128.002H132.838V124.656H131.55V118.874ZM126.65 124.656C127.084 123.564 127.294 122.304 127.294 120.89V120.218H129.968V124.656H126.65ZM140.215 126V121.268C140.215 119.546 139.053 118.692 137.135 118.692C135.441 118.692 134.265 119.518 134.195 120.848H135.763C135.833 120.246 136.309 119.938 137.191 119.938C138.199 119.938 138.689 120.414 138.689 121.24V121.45H136.589C135.637 121.45 134.923 121.688 134.461 122.164C133.999 122.64 133.761 123.2 133.761 123.844C133.761 124.502 133.985 125.048 134.447 125.51C134.909 125.958 135.525 126.182 136.309 126.182C137.275 126.182 137.975 125.902 138.409 125.342H138.745V126H140.215ZM136.799 124.894C135.889 124.894 135.357 124.474 135.357 123.746C135.357 123.004 135.875 122.57 136.869 122.57H138.689V123.116C138.689 123.606 138.507 124.026 138.143 124.376C137.779 124.726 137.331 124.894 136.799 124.894ZM148.913 118.874H147.331V121.674H143.887V118.874H142.305V126H143.887V123.018H147.331V126H148.913V118.874ZM157.704 118.874H156.122V121.674H152.678V118.874H151.096V126H152.678V123.018H156.122V126H157.704V118.874ZM159.887 126H163.247C165.025 126 166.019 125.062 166.019 123.508C166.019 121.982 165.025 121.086 163.247 121.086H161.469V118.874H159.887V126ZM163.023 122.36C164.045 122.36 164.437 122.738 164.437 123.508C164.437 124.25 164.045 124.656 163.023 124.656H161.469V122.36H163.023ZM167.125 126H168.707V118.874H167.125V126ZM177.403 126L175.303 122.304L177.235 118.874H175.611L174.127 121.506H173.609L172.167 118.874H170.501L172.419 122.346L170.291 126H171.985L173.595 123.2H174.113L175.681 126H177.403ZM189.659 122.43C189.659 121.324 189.337 120.428 188.679 119.742C188.035 119.042 187.167 118.692 186.061 118.692C184.955 118.692 184.087 119.042 183.429 119.742C182.785 120.428 182.463 121.324 182.463 122.43C182.463 123.536 182.785 124.446 183.429 125.146C184.087 125.832 184.955 126.182 186.061 126.182C187.167 126.182 188.035 125.832 188.679 125.146C189.337 124.446 189.659 123.536 189.659 122.43ZM188.077 122.43C188.077 123.788 187.363 124.838 186.061 124.838C184.759 124.838 184.045 123.788 184.045 122.43C184.045 121.086 184.759 120.036 186.061 120.036C187.363 120.036 188.077 121.086 188.077 122.43ZM194.886 119.028C193.892 119.028 193.136 119.35 192.632 120.008H192.296C192.506 118.79 192.968 118.118 194.046 117.95L196.314 117.586C197.392 117.404 197.7 116.788 197.742 115.822H196.384C196.37 116.2 196.23 116.256 195.684 116.354L193.822 116.662C192.66 116.844 191.89 117.516 191.498 118.538C191.12 119.56 191.008 120.526 191.008 121.828C191.008 124.628 192.352 126.182 194.648 126.182C195.74 126.182 196.608 125.846 197.266 125.174C197.924 124.502 198.26 123.648 198.26 122.612C198.26 121.562 197.952 120.708 197.336 120.036C196.734 119.364 195.908 119.028 194.886 119.028ZM194.634 124.838C193.976 124.838 193.472 124.614 193.122 124.18C192.772 123.746 192.604 123.2 192.604 122.57C192.604 121.296 193.304 120.33 194.634 120.33C195.936 120.33 196.65 121.296 196.65 122.57C196.65 123.2 196.482 123.746 196.132 124.18C195.782 124.614 195.292 124.838 194.634 124.838ZM201.164 120.218V126H204.664C206.442 126 207.45 125.062 207.45 123.508C207.45 121.982 206.442 121.086 204.664 121.086H202.746V118.874H199.078V120.218H201.164ZM202.746 124.656V122.36H204.44C205.462 122.36 205.854 122.738 205.854 123.508C205.854 124.25 205.462 124.656 204.44 124.656H202.746ZM215.49 122.038C215.476 121.072 215.168 120.274 214.58 119.644C214.006 119.014 213.194 118.692 212.172 118.692C211.094 118.692 210.226 119.028 209.596 119.7C208.966 120.358 208.658 121.254 208.658 122.388C208.658 123.522 208.98 124.432 209.61 125.132C210.24 125.832 211.108 126.182 212.214 126.182C214.006 126.182 215.112 125.286 215.392 123.928H213.782C213.572 124.53 213.054 124.838 212.228 124.838C210.94 124.838 210.268 124.082 210.226 122.57H215.49V122.038ZM212.158 119.952C213.152 119.952 213.754 120.554 213.866 121.394H210.296C210.478 120.512 211.108 119.952 212.158 119.952ZM223.834 126L221.986 122.304L223.736 118.874H222.112L220.684 121.674H218.822V118.874H217.24V126H218.822V123.018H220.656L222.168 126H223.834ZM227.18 120.218V126H228.762V120.218H231.156V118.874H224.772V120.218H227.18ZM239.37 122.43C239.37 121.324 239.048 120.428 238.39 119.742C237.746 119.042 236.878 118.692 235.772 118.692C234.666 118.692 233.798 119.042 233.14 119.742C232.496 120.428 232.174 121.324 232.174 122.43C232.174 123.536 232.496 124.446 233.14 125.146C233.798 125.832 234.666 126.182 235.772 126.182C236.878 126.182 237.746 125.832 238.39 125.146C239.048 124.446 239.37 123.536 239.37 122.43ZM237.788 122.43C237.788 123.788 237.074 124.838 235.772 124.838C234.47 124.838 233.756 123.788 233.756 122.43C233.756 121.086 234.47 120.036 235.772 120.036C237.074 120.036 237.788 121.086 237.788 122.43ZM246.403 122.066C246.851 121.842 247.201 121.31 247.201 120.68C247.201 119.56 246.389 118.874 244.947 118.874H241.139V126H245.073C246.697 126 247.593 125.328 247.593 124.04C247.593 123.158 247.117 122.57 246.403 122.388V122.066ZM242.693 124.796V122.906H244.779C245.591 122.906 245.997 123.228 245.997 123.858C245.997 124.488 245.591 124.796 244.779 124.796H242.693ZM244.611 120.078C245.283 120.078 245.619 120.358 245.619 120.918C245.619 121.408 245.297 121.758 244.611 121.758H242.693V120.078H244.611Z" fill="white"/>
<g filter="url(#filter1_f_713_2622)">
<ellipse cx="23.0547" cy="123" rx="11.0547" ry="11" fill="#FCCA3A" fill-opacity="0.3"/>
</g>
<ellipse cx="23.0548" cy="123" rx="7.03482" ry="7" fill="#FCCA3A"/>
<g filter="url(#filter2_f_713_2622)">
<ellipse cx="23.0547" cy="93" rx="11.0547" ry="11" fill="#FCCA3A" fill-opacity="0.3"/>
</g>
<ellipse cx="23.0548" cy="93" rx="7.03482" ry="7" fill="#FCCA3A"/>
<g filter="url(#filter3_f_713_2622)">
<ellipse cx="23.0547" cy="63" rx="11.0547" ry="11" fill="#FCCA3A" fill-opacity="0.3"/>
</g>
<ellipse cx="23.0548" cy="63" rx="7.03482" ry="7" fill="#FCCA3A"/>
<path d="M46.356 33.066C46.804 32.842 47.154 32.31 47.154 31.68C47.154 30.56 46.342 29.874 44.9 29.874H41.092V37H45.026C46.65 37 47.546 36.328 47.546 35.04C47.546 34.158 47.07 33.57 46.356 33.388V33.066ZM42.646 35.796V33.906H44.732C45.544 33.906 45.95 34.228 45.95 34.858C45.95 35.488 45.544 35.796 44.732 35.796H42.646ZM44.564 31.078C45.236 31.078 45.572 31.358 45.572 31.918C45.572 32.408 45.25 32.758 44.564 32.758H42.646V31.078H44.564ZM55.2308 37V32.268C55.2308 30.546 54.0688 29.692 52.1508 29.692C50.4568 29.692 49.2808 30.518 49.2108 31.848H50.7788C50.8488 31.246 51.3248 30.938 52.2068 30.938C53.2148 30.938 53.7048 31.414 53.7048 32.24V32.45H51.6048C50.6528 32.45 49.9388 32.688 49.4768 33.164C49.0148 33.64 48.7768 34.2 48.7768 34.844C48.7768 35.502 49.0008 36.048 49.4628 36.51C49.9248 36.958 50.5408 37.182 51.3248 37.182C52.2908 37.182 52.9908 36.902 53.4248 36.342H53.7608V37H55.2308ZM51.8148 35.894C50.9048 35.894 50.3728 35.474 50.3728 34.746C50.3728 34.004 50.8908 33.57 51.8848 33.57H53.7048V34.116C53.7048 34.606 53.5228 35.026 53.1588 35.376C52.7948 35.726 52.3468 35.894 51.8148 35.894ZM63.9285 29.874H62.3465V32.674H58.9025V29.874H57.3205V37H58.9025V34.018H62.3465V37H63.9285V29.874ZM72.7195 29.874H71.1375V32.674H67.6935V29.874H66.1115V37H67.6935V34.018H71.1375V37H72.7195V29.874ZM80.8245 37V32.268C80.8245 30.546 79.6625 29.692 77.7445 29.692C76.0505 29.692 74.8745 30.518 74.8045 31.848H76.3725C76.4425 31.246 76.9185 30.938 77.8005 30.938C78.8085 30.938 79.2985 31.414 79.2985 32.24V32.45H77.1985C76.2465 32.45 75.5325 32.688 75.0705 33.164C74.6085 33.64 74.3705 34.2 74.3705 34.844C74.3705 35.502 74.5945 36.048 75.0565 36.51C75.5185 36.958 76.1345 37.182 76.9185 37.182C77.8845 37.182 78.5845 36.902 79.0185 36.342H79.3545V37H80.8245ZM77.4085 35.894C76.4985 35.894 75.9665 35.474 75.9665 34.746C75.9665 34.004 76.4845 33.57 77.4785 33.57H79.2985V34.116C79.2985 34.606 79.1165 35.026 78.7525 35.376C78.3885 35.726 77.9405 35.894 77.4085 35.894ZM93.5868 33.43C93.5868 32.324 93.2648 31.428 92.6068 30.742C91.9628 30.042 91.0948 29.692 89.9888 29.692C88.8828 29.692 88.0148 30.042 87.3568 30.742C86.7128 31.428 86.3908 32.324 86.3908 33.43C86.3908 34.536 86.7128 35.446 87.3568 36.146C88.0148 36.832 88.8828 37.182 89.9888 37.182C91.0948 37.182 91.9628 36.832 92.6068 36.146C93.2648 35.446 93.5868 34.536 93.5868 33.43ZM92.0048 33.43C92.0048 34.788 91.2908 35.838 89.9888 35.838C88.6868 35.838 87.9728 34.788 87.9728 33.43C87.9728 32.086 88.6868 31.036 89.9888 31.036C91.2908 31.036 92.0048 32.086 92.0048 33.43ZM96.955 31.218V37H98.537V31.218H100.931V29.874H94.547V31.218H96.955ZM111.822 27.2H105.354V28.614H110.142V28.95L106.04 37H107.748L111.822 28.936V27.2ZM124.126 29.874H118.428V31.876C118.428 33.234 118.176 34.494 117.686 35.656H116.678V39.002H118.19V37H123.902V39.002H125.414V35.656H124.126V29.874ZM119.226 35.656C119.66 34.564 119.87 33.304 119.87 31.89V31.218H122.544V35.656H119.226ZM133.477 29.874H131.895V32.674H128.451V29.874H126.869V37H128.451V34.018H131.895V37H133.477V29.874ZM142.072 33.038C142.058 32.072 141.75 31.274 141.162 30.644C140.588 30.014 139.776 29.692 138.754 29.692C137.676 29.692 136.808 30.028 136.178 30.7C135.548 31.358 135.24 32.254 135.24 33.388C135.24 34.522 135.562 35.432 136.192 36.132C136.822 36.832 137.69 37.182 138.796 37.182C140.588 37.182 141.694 36.286 141.974 34.928H140.364C140.154 35.53 139.636 35.838 138.81 35.838C137.522 35.838 136.85 35.082 136.808 33.57H142.072V33.038ZM138.74 30.952C139.734 30.952 140.336 31.554 140.448 32.394H136.878C137.06 31.512 137.69 30.952 138.74 30.952ZM148.582 32.296H148.918V37H150.458V29.874H148.624L145.698 34.578H145.362V29.874H143.822V37H145.614L148.582 32.296ZM148.246 26.906C148.204 27.578 147.826 27.914 147.126 27.914C146.426 27.914 146.048 27.578 146.006 26.906H144.76C144.83 28.208 145.684 28.978 147.126 28.978C148.568 28.978 149.422 28.208 149.492 26.906H148.246ZM159.995 30.028C159.001 30.028 158.245 30.35 157.741 31.008H157.405C157.615 29.79 158.077 29.118 159.155 28.95L161.423 28.586C162.501 28.404 162.809 27.788 162.851 26.822H161.493C161.479 27.2 161.339 27.256 160.793 27.354L158.931 27.662C157.769 27.844 156.999 28.516 156.607 29.538C156.229 30.56 156.117 31.526 156.117 32.828C156.117 35.628 157.461 37.182 159.757 37.182C160.849 37.182 161.717 36.846 162.375 36.174C163.033 35.502 163.369 34.648 163.369 33.612C163.369 32.562 163.061 31.708 162.445 31.036C161.843 30.364 161.017 30.028 159.995 30.028ZM159.743 35.838C159.085 35.838 158.581 35.614 158.231 35.18C157.881 34.746 157.713 34.2 157.713 33.57C157.713 32.296 158.413 31.33 159.743 31.33C161.045 31.33 161.759 32.296 161.759 33.57C161.759 34.2 161.591 34.746 161.241 35.18C160.891 35.614 160.401 35.838 159.743 35.838ZM171.549 33.038C171.535 32.072 171.227 31.274 170.639 30.644C170.065 30.014 169.253 29.692 168.231 29.692C167.153 29.692 166.285 30.028 165.655 30.7C165.025 31.358 164.717 32.254 164.717 33.388C164.717 34.522 165.039 35.432 165.669 36.132C166.299 36.832 167.167 37.182 168.273 37.182C170.065 37.182 171.171 36.286 171.451 34.928H169.841C169.631 35.53 169.113 35.838 168.287 35.838C166.999 35.838 166.327 35.082 166.285 33.57H171.549V33.038ZM168.217 30.952C169.211 30.952 169.813 31.554 169.925 32.394H166.355C166.537 31.512 167.167 30.952 168.217 30.952ZM177.387 31.89C177.387 32.45 176.981 32.73 176.183 32.73H175.035V34.018H176.253C177.149 34.018 177.597 34.312 177.597 34.9C177.597 35.53 177.079 35.838 176.043 35.838C175.021 35.838 174.405 35.516 174.223 34.872H172.739C172.921 36.328 174.069 37.182 176.099 37.182C177.037 37.182 177.793 36.972 178.339 36.566C178.899 36.146 179.179 35.614 179.179 34.984C179.179 34.144 178.857 33.626 178.227 33.444V33.108C178.717 32.912 178.955 32.45 178.955 31.708C178.955 30.546 177.863 29.692 176.085 29.692C174.335 29.692 173.131 30.504 173.005 31.946H174.475C174.601 31.344 175.119 31.036 176.001 31.036C176.855 31.036 177.387 31.33 177.387 31.89ZM191.669 33.43C191.669 32.324 191.347 31.428 190.689 30.742C190.045 30.042 189.177 29.692 188.071 29.692C186.965 29.692 186.097 30.042 185.439 30.742C184.795 31.428 184.473 32.324 184.473 33.43C184.473 34.536 184.795 35.446 185.439 36.146C186.097 36.832 186.965 37.182 188.071 37.182C189.177 37.182 190.045 36.832 190.689 36.146C191.347 35.446 191.669 34.536 191.669 33.43ZM190.087 33.43C190.087 34.788 189.373 35.838 188.071 35.838C186.769 35.838 186.055 34.788 186.055 33.43C186.055 32.086 186.769 31.036 188.071 31.036C189.373 31.036 190.087 32.086 190.087 33.43ZM195.037 31.218V37H196.619V31.218H199.013V29.874H192.629V31.218H195.037ZM205.127 34.718C204.959 35.46 204.441 35.838 203.573 35.838C202.243 35.838 201.613 34.83 201.613 33.416C201.613 32.03 202.243 31.036 203.573 31.036C204.357 31.036 204.861 31.372 205.071 32.044H206.639C206.429 30.63 205.253 29.692 203.559 29.692C202.467 29.692 201.599 30.042 200.969 30.728C200.339 31.414 200.031 32.324 200.031 33.43C200.031 34.55 200.339 35.46 200.969 36.146C201.599 36.832 202.467 37.182 203.559 37.182C205.253 37.182 206.471 36.216 206.695 34.718H205.127ZM214.82 33.038C214.806 32.072 214.498 31.274 213.91 30.644C213.336 30.014 212.524 29.692 211.502 29.692C210.424 29.692 209.556 30.028 208.926 30.7C208.296 31.358 207.988 32.254 207.988 33.388C207.988 34.522 208.31 35.432 208.94 36.132C209.57 36.832 210.438 37.182 211.544 37.182C213.336 37.182 214.442 36.286 214.722 34.928H213.112C212.902 35.53 212.384 35.838 211.558 35.838C210.27 35.838 209.598 35.082 209.556 33.57H214.82V33.038ZM211.488 30.952C212.482 30.952 213.084 31.554 213.196 32.394H209.626C209.808 31.512 210.438 30.952 211.488 30.952ZM216.053 37C217.047 37 217.761 36.692 218.195 36.062C218.643 35.432 218.867 34.34 218.867 32.8V31.218H221.597V37H223.179V29.874H217.411V32.758C217.411 34.83 217.019 35.502 216.053 35.502H215.801V37H216.053ZM231.774 33.038C231.76 32.072 231.452 31.274 230.864 30.644C230.29 30.014 229.478 29.692 228.456 29.692C227.378 29.692 226.51 30.028 225.88 30.7C225.25 31.358 224.942 32.254 224.942 33.388C224.942 34.522 225.264 35.432 225.894 36.132C226.524 36.832 227.392 37.182 228.498 37.182C230.29 37.182 231.396 36.286 231.676 34.928H230.066C229.856 35.53 229.338 35.838 228.512 35.838C227.224 35.838 226.552 35.082 226.51 33.57H231.774V33.038ZM228.442 30.952C229.436 30.952 230.038 31.554 230.15 32.394H226.58C226.762 31.512 227.392 30.952 228.442 30.952ZM240.132 29.874H238.55V32.674H235.106V29.874H233.524V37H235.106V34.018H238.55V37H240.132V29.874ZM247.075 32.296H247.411V37H248.951V29.874H247.117L244.191 34.578H243.855V29.874H242.315V37H244.107L247.075 32.296ZM253.597 29.874C251.875 29.874 250.895 30.742 250.895 32.156C250.895 33.038 251.259 33.682 251.973 34.06L250.825 37H252.421L253.415 34.396C253.527 34.41 253.695 34.41 253.919 34.41H255.599V37H257.181V29.874H253.597ZM253.723 33.178C252.883 33.178 252.463 32.842 252.463 32.17C252.463 31.498 252.883 31.162 253.723 31.162H255.599V33.178H253.723Z" fill="white"/>
<g filter="url(#filter4_f_713_2622)">
<ellipse cx="23.0547" cy="34" rx="11.0547" ry="11" fill="#FCCA3A" fill-opacity="0.3"/>
</g>
<ellipse cx="23.0548" cy="34" rx="7.03482" ry="7" fill="#FCCA3A"/>
<defs>
<filter id="filter0_f_713_2622" x="-40" y="0" width="394" height="204" filterUnits="userSpaceOnUse" color-interpolation-filters="sRGB">
<feFlood flood-opacity="0" result="BackgroundImageFix"/>
<feBlend mode="normal" in="SourceGraphic" in2="BackgroundImageFix" result="shape"/>
<feGaussianBlur stdDeviation="25" result="effect1_foregroundBlur_713_2622"/>
</filter>
<filter id="filter1_f_713_2622" x="-8" y="92" width="62.1094" height="62" filterUnits="userSpaceOnUse" color-interpolation-filters="sRGB">
<feFlood flood-opacity="0" result="BackgroundImageFix"/>
<feBlend mode="normal" in="SourceGraphic" in2="BackgroundImageFix" result="shape"/>
<feGaussianBlur stdDeviation="10" result="effect1_foregroundBlur_713_2622"/>
</filter>
<filter id="filter2_f_713_2622" x="-8" y="62" width="62.1094" height="62" filterUnits="userSpaceOnUse" color-interpolation-filters="sRGB">
<feFlood flood-opacity="0" result="BackgroundImageFix"/>
<feBlend mode="normal" in="SourceGraphic" in2="BackgroundImageFix" result="shape"/>
<feGaussianBlur stdDeviation="10" result="effect1_foregroundBlur_713_2622"/>
</filter>
<filter id="filter3_f_713_2622" x="-8" y="32" width="62.1094" height="62" filterUnits="userSpaceOnUse" color-interpolation-filters="sRGB">
<feFlood flood-opacity="0" result="BackgroundImageFix"/>
<feBlend mode="normal" in="SourceGraphic" in2="BackgroundImageFix" result="shape"/>
<feGaussianBlur stdDeviation="10" result="effect1_foregroundBlur_713_2622"/>
</filter>
<filter id="filter4_f_713_2622" x="-8" y="3" width="62.1094" height="62" filterUnits="userSpaceOnUse" color-interpolation-filters="sRGB">
<feFlood flood-opacity="0" result="BackgroundImageFix"/>
<feBlend mode="normal" in="SourceGraphic" in2="BackgroundImageFix" result="shape"/>
<feGaussianBlur stdDeviation="10" result="effect1_foregroundBlur_713_2622"/>
</filter>
</defs>
</svg>
