<svg width="70" height="70" viewBox="0 0 70 70" fill="none" xmlns="http://www.w3.org/2000/svg">
<path d="M43.3378 67.1309C43.3378 68.6412 42.1138 69.8653 40.6035 69.8653H17.9092C11.8786 69.8653 6.97224 64.9589 6.97224 58.9283V32.4487L4.80183 34.6143C4.2683 35.1467 3.56922 35.4132 2.87068 35.4132C2.16999 35.4132 1.46931 35.1457 0.935249 34.6105C-0.131798 33.5419 -0.129662 31.8105 0.938988 30.7434L29.6884 2.05062C29.7252 2.01377 29.7632 1.97852 29.8016 1.94381C32.9248 -0.836499 37.6256 -0.826352 40.7364 1.96677C40.7781 2.00415 40.8187 2.04261 40.8582 2.08266L66.4086 28.0261C67.4682 29.1017 67.4548 30.8331 66.3792 31.8927C65.3031 32.9523 63.5722 32.9389 62.5121 31.8633L37.0306 5.98983C36.01 5.11878 34.5099 5.11664 33.4871 5.98556L12.4367 26.9949C12.4373 27.021 12.4405 27.0472 12.4405 27.0739V58.9283C12.4405 61.9436 14.8939 64.3965 17.9092 64.3965H40.6035C42.1138 64.3965 43.3378 65.6206 43.3378 67.1309ZM61.7943 51.1353C61.7943 49.625 60.5703 48.401 59.06 48.401C57.5502 48.401 56.3256 49.625 56.3256 51.1353C56.3256 52.6457 57.5502 53.8697 59.06 53.8697C60.5703 53.8697 61.7943 52.6457 61.7943 51.1353ZM68.0407 41.9218C66.8706 39.3038 64.2339 37.6071 61.318 37.6007H52.7907C52.7843 37.6007 52.7789 37.6007 52.7725 37.6007C49.6963 37.6007 47.0127 39.4133 45.9328 42.2225C45.7892 42.5963 45.6135 43.0673 45.4303 43.6163H27.5281C26.7885 43.6163 26.0808 43.9154 25.566 44.4457L20.869 49.2838C19.8345 50.3492 19.8398 52.0459 20.8807 53.1049L25.6659 57.9734C26.1802 58.4968 26.8825 58.7911 27.6157 58.7911H36.5024C38.0128 58.7911 39.2368 57.567 39.2368 56.0572C39.2368 54.5469 38.0128 53.3228 36.5024 53.3228H28.7623L26.6533 51.1765L28.6844 49.0846H47.4811C48.7409 49.0846 49.8373 48.2242 50.1369 47.0007C50.358 46.097 50.6357 45.2287 51.0374 44.1846C51.3022 43.4962 51.9666 43.0689 52.7789 43.0689H52.7843H61.3116C62.0843 43.0711 62.7503 43.4866 63.0483 44.1536C63.7821 45.7958 64.659 48.3379 64.6654 51.1241C64.6719 53.9306 63.7965 56.5309 63.0606 58.2186C62.7642 58.8995 62.0929 59.3379 61.3495 59.3379C61.3484 59.3379 61.3468 59.3379 61.3452 59.3379L52.709 59.3176C51.9356 59.316 51.2435 58.8487 50.946 58.1272C50.6261 57.3518 50.349 56.4663 50.0985 55.4206C49.7471 53.952 48.2709 53.0457 46.8028 53.3981C45.3342 53.7496 44.4289 55.2252 44.7803 56.6933C45.0976 58.0199 45.4607 59.1708 45.8906 60.2122C47.0335 62.984 49.7049 64.7795 52.6961 64.7864L61.3324 64.8067H61.3495C64.2686 64.8067 66.9064 63.0801 68.0733 60.4039C69.0186 58.2367 70.1427 54.8657 70.1342 51.1108C70.1251 47.3665 68.9908 44.0473 68.0407 41.9218Z" fill="#FCCA3A"/>
</svg>
