<svg width="17" height="17" viewBox="0 0 17 17" fill="none" xmlns="http://www.w3.org/2000/svg">
<g clip-path="url(#clip0_866_459)">
<path d="M9.64067 11.9311L5.06741 7.35781L5.48483 6.10556C5.72439 5.38688 5.53735 4.59454 5.00167 4.05887L4.37457 3.43178C3.59352 2.65073 2.32719 2.65074 1.54615 3.43178L0.176737 4.8012C0.0655226 4.91241 0.0133802 5.06962 0.036091 5.22526C0.0557799 5.36012 0.563311 8.57328 4.49427 12.5042C8.42523 16.4352 11.6384 16.9427 11.7732 16.9624C11.9289 16.9851 12.0861 16.9329 12.1973 16.8217L13.5667 15.4523C14.3477 14.6712 14.3477 13.4049 13.5667 12.6239L12.9396 11.9968C12.4039 11.4611 11.6116 11.2741 10.8929 11.5136L9.64067 11.9311ZM5.19856 11.7999C3.27681 9.87817 2.24325 8.15251 1.71464 7.04325C1.49056 6.57305 1.33582 6.17095 1.23044 5.85545C1.11955 5.52346 1.22314 5.16344 1.47064 4.91594L1.86291 4.52368C2.46901 3.91759 3.45169 3.91759 4.05779 4.52369C4.47347 4.93937 4.61862 5.55423 4.43272 6.11193L3.92774 7.62685L9.37159 13.0707L10.8865 12.5657C11.4442 12.3799 12.0591 12.525 12.4748 12.9407C13.0808 13.5468 13.0808 14.5295 12.4747 15.1356L12.0814 15.5289C11.8342 15.7761 11.4757 15.8801 11.1442 15.7693C10.0196 15.3936 7.7824 14.3837 5.19856 11.7999Z" fill="#1168AC"/>
<path d="M9.00244 0C8.45016 0 8.00244 0.447715 8.00244 1V6.22705C8.00244 6.77934 8.45016 7.22706 9.00244 7.22706H9.77322V9.07623L12.547 7.22706H16.0003C16.5526 7.22706 17.0003 6.77934 17.0003 6.22706V1C17.0003 0.447716 16.5526 0 16.0003 0H9.00244ZM16.0042 5.23098C16.0042 5.78327 15.5565 6.23098 15.0042 6.23098H12.2454L10.7693 7.21507V6.23098H9.99851C9.44623 6.23098 8.99851 5.78327 8.99851 5.23098V1.99607C8.99851 1.44379 9.44623 0.99607 9.99851 0.99607H15.0042C15.5565 0.99607 16.0042 1.44379 16.0042 1.99607V5.23098Z" fill="#1168AC"/>
<path d="M14.27 2.83131L13.5657 2.12695L12.1471 3.54559L11.4367 2.83529L10.7324 3.53961L12.1471 4.95423L14.27 2.83131Z" fill="#1168AC"/>
</g>
<defs>
<clipPath id="clip0_866_459">
<rect width="17" height="17" fill="white"/>
</clipPath>
</defs>
</svg>
