<svg width="70" height="70" viewBox="0 0 70 70" fill="none" xmlns="http://www.w3.org/2000/svg">
<path d="M61.6325 58.1432C63.077 57.5012 64.0079 56.0687 64.0079 54.488V4C64.0079 1.79086 62.217 0 60.0079 0H9.90333C7.69419 0 5.90332 1.79086 5.90332 4V54.488C5.90332 56.0687 6.83424 57.5012 8.27872 58.1432L34.9556 69.9999L61.6325 58.1432ZM11.7138 5.81045H58.1974V53.3112L34.9556 63.6405L11.7138 53.3112V5.81045Z" fill="#FCCA3A"/>
<path d="M52.3891 31.9568C52.3891 30.3522 51.0884 29.0515 49.4839 29.0515C47.8793 29.0515 46.5786 30.3522 46.5786 31.9568C46.5786 38.3644 41.3647 43.5777 34.9577 43.5777C28.5501 43.5777 23.3368 38.3644 23.3368 31.9568C23.3368 25.5491 28.5501 20.3358 34.9577 20.3358C36.5622 20.3358 37.863 19.0351 37.863 17.4306C37.863 15.8261 36.5622 14.5254 34.9577 14.5254C25.3455 14.5254 17.5264 22.3445 17.5264 31.9568C17.5264 41.569 25.3455 49.3881 34.9577 49.3881C44.5692 49.3881 52.3891 41.569 52.3891 31.9568Z" fill="#FCCA3A"/>
<path d="M32.6527 26.9976C31.5179 25.8628 29.6781 25.8629 28.5435 26.9979C27.4092 28.1326 27.4093 29.9719 28.5438 31.1064L34.9558 37.5184L48.6305 23.843C49.7648 22.7087 49.765 20.8697 48.631 19.735C47.4965 18.6 45.6566 18.5997 44.5218 19.7345L34.9558 29.3006L32.6527 26.9976Z" fill="#FCCA3A"/>
</svg>
