<svg width="14" height="14" viewBox="0 0 14 14" fill="none" xmlns="http://www.w3.org/2000/svg">
<path d="M13.23 9.62889C12.2733 9.62889 11.3478 9.47333 10.4844 9.19333C10.3492 9.14749 10.2038 9.14068 10.0648 9.1737C9.92588 9.20671 9.79906 9.27821 9.69889 9.38L8.47778 10.9122C6.27667 9.86222 4.21556 7.87889 3.11889 5.6L4.63556 4.30889C4.84556 4.09111 4.90778 3.78778 4.82222 3.51556C4.53444 2.65222 4.38667 1.72667 4.38667 0.77C4.38667 0.35 4.03667 0 3.61667 0H0.925556C0.505556 0 0 0.186667 0 0.77C0 7.99556 6.01222 14 13.23 14C13.7822 14 14 13.51 14 13.0822V10.3989C14 9.97889 13.65 9.62889 13.23 9.62889Z" fill="#FFD24D"/>
</svg>
